{"glyphs":{":":{"x_min":0,"x_max":252,"ha":252,"o":""},"$":{"x_min":0,"x_max":434,"ha":434,"o":"m 266 -3 q 261 -5 261 -9 l 262 -69 q 262 -74 258 -78 q 255 -81 250 -81 l 187 -81 q 182 -81 178 -78 q 175 -74 175 -69 l 176 -9 q 176 -4 172 -3 q 108 10 71 58 q 34 105 34 173 l 34 199 q 34 204 38 208 q 41 211 46 211 l 137 211 q 142 211 146 208 q 149 204 149 199 l 149 179 q 149 140 168 116 q 188 92 219 92 q 250 92 270 114 q 290 137 290 174 q 290 200 279 219 q 268 238 248 255 q 228 272 184 304 q 134 340 104 368 q 73 396 52 436 q 32 475 32 527 q 32 598 69 645 q 106 692 170 704 q 175 706 175 710 l 174 776 q 174 781 178 784 q 181 788 186 788 l 248 788 q 253 788 256 784 q 260 781 260 776 l 258 709 q 258 704 262 703 q 325 689 362 640 q 399 591 399 520 l 399 496 q 399 491 396 488 q 392 484 387 484 l 297 484 q 292 484 288 488 q 285 491 285 496 l 285 522 q 285 561 266 584 q 246 608 214 608 q 184 608 165 586 q 146 565 146 527 q 146 491 166 466 q 187 441 247 397 q 308 352 339 324 q 370 295 387 261 q 404 227 404 180 q 404 107 366 58 q 329 10 266 -3 z"},"?":{"x_min":0,"x_max":413,"ha":413,"o":"m 135 226 l 135 267 q 135 315 154 344 q 173 373 210 407 q 242 436 258 460 q 274 483 274 518 q 274 557 256 580 q 238 604 208 604 q 175 604 156 580 q 137 555 137 515 l 137 494 q 137 483 125 483 l 33 487 q 28 487 24 491 q 21 495 21 500 l 21 515 q 21 572 45 616 q 69 661 112 686 q 155 710 211 710 q 293 710 342 658 q 391 607 391 522 q 391 477 379 446 q 367 414 350 394 q 333 374 306 349 q 278 324 264 306 q 251 287 251 260 l 251 226 q 251 221 248 218 q 244 214 239 214 l 147 214 q 142 214 138 218 q 135 221 135 226 z m 123 70 q 123 101 142 120 q 162 140 193 140 q 224 140 244 120 q 264 101 264 70 q 264 39 244 19 q 224 -1 193 -1 q 162 -1 142 19 q 123 39 123 70 z"},"<":{"x_min":0,"x_max":439,"ha":439,"o":"m 399 59 l 36 229 q 27 234 27 243 l 27 324 q 27 334 36 338 l 399 509 q 403 511 405 511 q 413 511 413 500 l 413 415 q 413 406 404 401 l 145 287 q 139 284 145 281 l 404 167 q 413 163 413 153 l 413 68 q 413 61 409 58 q 405 56 399 59 z"},"'":{"x_min":0,"x_max":152,"ha":152,"o":"m 28 492 l 18 687 q 18 699 29 699 l 122 699 q 133 699 133 687 l 122 492 q 122 487 118 484 q 114 480 109 480 l 41 480 q 36 480 32 484 q 28 487 28 492 z"},"=":{"x_min":0,"x_max":439,"ha":439,"o":""},"a":{"x_min":0,"x_max":434,"ha":434,"o":"m 397 352 l 397 12 q 397 7 394 4 q 390 0 385 0 l 293 0 q 288 0 284 4 q 281 7 281 12 l 281 31 q 281 34 279 35 q 277 36 275 33 q 240 -8 173 -8 q 116 -8 72 24 q 29 57 29 143 q 29 233 82 271 q 134 309 224 309 l 276 309 q 281 309 281 314 l 281 340 q 281 376 263 398 q 245 419 218 419 q 197 419 183 406 q 169 392 166 369 q 165 357 153 357 l 56 357 q 44 357 45 369 q 50 437 98 478 q 147 519 220 519 q 299 519 348 473 q 397 427 397 352 z m 281 160 l 281 217 q 281 222 276 222 l 224 222 q 190 222 169 204 q 148 185 148 150 q 148 119 164 104 q 180 88 205 88 q 235 88 258 107 q 281 126 281 160 z"},"L":{"x_min":0,"x_max":415,"ha":415,"o":"m 54 12 l 54 688 q 54 693 58 696 q 61 700 66 700 l 158 700 q 163 700 166 696 q 170 693 170 688 l 170 105 q 170 100 175 100 l 391 100 q 396 100 400 96 q 403 93 403 88 l 403 12 q 403 7 400 4 q 396 0 391 0 l 66 0 q 61 0 58 4 q 54 7 54 12 z"},"3":{"x_min":0,"x_max":426,"ha":426,"o":"m 387 218 q 387 169 380 134 q 368 66 326 29 q 283 -8 210 -8 q 134 -8 86 32 q 38 73 32 143 q 30 165 28 207 q 28 219 40 219 l 132 219 q 144 219 144 207 q 146 173 148 156 q 153 125 169 108 q 185 92 210 92 q 234 92 250 108 q 266 123 271 152 q 276 182 276 230 q 276 281 269 315 q 263 341 248 355 q 233 369 210 369 q 195 369 183 360 q 177 356 174 356 q 172 356 166 360 l 119 408 q 115 412 115 417 q 115 421 118 425 l 243 595 q 245 597 244 599 q 242 601 239 601 l 49 601 q 44 601 40 604 q 37 608 37 613 l 37 688 q 37 693 40 696 q 44 700 49 700 l 373 700 q 378 700 382 696 q 385 693 385 688 l 385 609 q 385 602 380 594 l 266 438 q 262 432 268 431 q 309 426 338 392 q 368 358 378 307 q 387 267 387 218 z"},";":{"x_min":0,"x_max":218,"ha":218,"o":"m 35 403 q 35 434 58 456 q 80 479 109 479 q 138 479 160 456 q 183 434 183 403 q 183 370 162 348 q 141 325 109 325 q 77 325 56 348 q 35 370 35 403 z m 40 -76 l 59 143 q 61 154 71 154 l 152 154 q 165 154 162 141 l 119 -78 q 118 -89 106 -89 l 52 -89 q 46 -89 42 -86 q 39 -82 40 -76 z"},"J":{"x_min":0,"x_max":443,"ha":443,"o":"m 17 173 l 17 247 q 17 252 20 256 q 24 259 29 259 l 121 259 q 126 259 130 256 q 133 252 133 247 l 133 171 q 133 136 152 114 q 171 92 202 92 q 233 92 252 114 q 272 136 272 171 l 272 688 q 272 693 276 696 q 279 700 284 700 l 376 700 q 381 700 384 696 q 388 693 388 688 l 388 173 q 388 91 336 42 q 285 -8 202 -8 q 119 -8 68 42 q 17 91 17 173 z"},"V":{"x_min":0,"x_max":471,"ha":471,"o":"m 171 11 l 28 687 l 27 691 q 27 700 38 700 l 139 700 q 151 700 152 689 l 235 208 q 236 205 238 205 q 240 205 241 208 l 322 689 q 323 700 335 700 l 433 700 q 446 700 443 687 l 299 11 q 297 0 286 0 l 184 0 q 173 0 171 11 z"},"\"":{"x_min":0,"x_max":306,"ha":306,"o":"m 28 489 l 18 685 q 18 697 29 697 l 116 697 q 127 697 127 685 l 117 489 q 117 484 113 480 q 109 477 104 477 l 41 477 q 36 477 32 480 q 28 484 28 489 z m 188 489 l 178 685 q 178 697 189 697 l 276 697 q 287 697 287 685 l 277 489 q 277 484 273 480 q 269 477 264 477 l 201 477 q 196 477 192 480 q 188 484 188 489 z"},"7":{"x_min":0,"x_max":392,"ha":392,"o":"m 90 13 l 255 594 q 257 600 251 600 l 116 600 q 111 600 111 595 l 111 559 q 111 554 108 550 q 104 547 99 547 l 28 547 q 23 547 20 550 q 16 554 16 559 l 17 688 q 17 693 20 696 q 24 700 29 700 l 368 700 q 373 700 376 696 q 380 693 380 688 l 380 607 q 380 603 378 593 l 211 10 q 208 0 197 0 l 100 0 q 87 0 90 13 z"},"S":{"x_min":0,"x_max":434,"ha":434,"o":"m 34 173 l 34 199 q 34 204 38 208 q 41 211 46 211 l 137 211 q 142 211 146 208 q 149 204 149 199 l 149 179 q 149 140 168 116 q 188 92 219 92 q 250 92 270 114 q 290 137 290 174 q 290 200 279 219 q 268 238 248 255 q 228 272 184 304 q 134 340 104 368 q 73 396 52 436 q 32 475 32 527 q 32 610 82 659 q 132 708 214 708 q 297 708 348 656 q 399 605 399 520 l 399 496 q 399 491 396 488 q 392 484 387 484 l 297 484 q 292 484 288 488 q 285 491 285 496 l 285 522 q 285 561 266 584 q 246 608 214 608 q 184 608 165 586 q 146 565 146 527 q 146 491 166 466 q 187 441 247 397 q 308 352 339 324 q 370 295 387 261 q 404 227 404 180 q 404 95 353 44 q 302 -8 219 -8 q 136 -8 85 42 q 34 92 34 173 z"},"}":{"x_min":0,"x_max":319,"ha":319,"o":"m 39 -138 q 34 -138 30 -134 q 27 -131 27 -126 l 27 -49 q 27 -44 30 -40 q 34 -37 39 -37 l 59 -37 q 83 -37 96 -20 q 110 -2 110 30 l 110 207 q 110 298 162 327 q 167 330 162 333 q 110 361 110 451 l 110 624 q 110 655 96 673 q 82 691 59 691 l 39 691 q 34 691 30 694 q 27 698 27 703 l 27 779 q 27 784 30 788 q 34 791 39 791 l 111 791 q 167 791 196 760 q 226 729 226 671 l 226 465 q 226 386 280 377 q 291 375 291 365 l 291 295 q 291 285 280 283 q 253 278 240 256 q 226 234 226 193 l 226 -18 q 226 -76 196 -107 q 167 -138 111 -138 z"},"Z":{"x_min":0,"x_max":406,"ha":406,"o":"m 25 12 l 25 92 q 25 100 28 107 l 252 594 q 253 596 252 598 q 251 600 249 600 l 37 600 q 32 600 28 604 q 25 607 25 612 l 25 688 q 25 693 28 696 q 32 700 37 700 l 365 700 q 370 700 374 696 q 377 693 377 688 l 377 608 q 377 601 374 593 l 150 106 q 149 104 150 102 q 151 100 153 100 l 365 100 q 370 100 374 96 q 377 93 377 88 l 377 12 q 377 7 374 4 q 370 0 365 0 l 37 0 q 32 0 28 4 q 25 7 25 12 z"},"x":{"x_min":0,"x_max":417,"ha":417,"o":"m 20 14 l 136 253 q 137 256 136 259 l 20 497 q 18 501 18 503 q 18 511 29 511 l 129 511 q 139 511 143 502 l 205 366 q 208 360 211 366 l 274 502 q 278 511 288 511 l 388 511 q 395 511 398 508 q 400 504 397 497 l 281 259 q 280 256 281 253 l 397 14 q 399 10 399 8 q 399 0 388 0 l 288 0 q 278 0 274 9 l 211 148 q 208 154 205 147 l 143 9 q 139 0 129 0 l 29 0 q 22 0 20 4 q 17 7 20 14 z"},")":{"x_min":0,"x_max":279,"ha":279,"o":"m 177 752 q 223 677 252 570 q 280 462 280 335 q 280 206 252 97 q 223 -12 176 -88 q 172 -96 162 -96 l 72 -96 q 65 -96 63 -92 q 61 -88 63 -82 q 100 2 124 108 q 149 213 149 334 q 149 455 124 559 q 100 663 63 746 q 62 748 62 752 q 62 760 72 760 l 163 760 q 173 760 177 752 z"},"&":{"x_min":0,"x_max":581,"ha":581,"o":"m 542 7 q 542 0 532 0 l 433 0 q 424 0 418 7 l 389 46 q 386 49 382 47 q 310 -9 217 -9 q 131 -9 82 35 q 32 79 32 163 q 32 229 62 276 q 92 322 144 363 q 148 366 145 370 q 97 437 83 468 q 69 500 69 537 q 69 615 116 662 q 162 708 239 708 q 290 708 330 686 q 370 665 393 626 q 416 587 416 536 q 416 474 384 430 q 353 385 299 344 q 295 341 298 337 q 302 331 336 285 l 388 214 q 390 212 392 212 q 394 212 395 214 q 420 249 441 290 q 447 301 458 295 l 526 256 q 536 249 530 240 q 496 175 460 127 q 457 123 459 120 q 484 89 539 15 q 542 11 542 7 z m 185 533 q 185 511 192 493 q 200 475 229 433 q 232 428 236 431 q 267 456 284 481 q 300 506 300 535 q 300 565 284 584 q 267 603 242 603 q 216 603 200 584 q 185 564 185 533 z m 320 130 q 324 133 321 137 l 284 185 l 215 275 q 212 279 208 276 q 148 226 148 172 q 148 137 169 114 q 190 91 228 91 q 273 91 320 130 z"},"_":{"x_min":0,"x_max":405,"ha":405,"o":"m 17 12 l 17 77 q 17 82 20 86 q 24 89 29 89 l 376 89 q 381 89 384 86 q 388 82 388 77 l 388 12 q 388 7 384 4 q 381 0 376 0 l 29 0 q 24 0 20 4 q 17 7 17 12 z"},"v":{"x_min":0,"x_max":415,"ha":415,"o":"m 141 10 l 19 499 l 19 503 q 19 512 30 512 l 132 512 q 144 512 145 501 l 205 190 q 206 187 208 187 q 210 187 211 190 l 270 501 q 271 512 283 512 l 385 510 q 399 510 396 497 l 275 10 q 272 0 261 0 l 155 0 q 144 0 141 10 z"},"O":{"x_min":0,"x_max":467,"ha":467,"o":"m 42 182 l 42 518 q 42 604 94 656 q 147 708 233 708 q 319 708 372 656 q 425 604 425 518 l 425 182 q 425 96 372 44 q 319 -8 233 -8 q 147 -8 94 44 q 42 96 42 182 z m 309 177 l 309 523 q 309 561 288 584 q 267 608 233 608 q 199 608 178 584 q 158 561 158 523 l 158 177 q 158 139 178 116 q 199 92 233 92 q 267 92 288 116 q 309 139 309 177 z"},"(":{"x_min":0,"x_max":279,"ha":279,"o":"m 102 -88 q 56 -12 28 95 q 0 202 0 330 q 0 459 28 568 q 57 677 103 752 q 107 760 117 760 l 207 760 q 214 760 216 756 q 219 752 217 746 q 180 664 155 558 q 130 452 130 330 q 130 210 154 105 q 179 0 217 -82 q 218 -84 218 -87 q 218 -91 215 -94 q 212 -96 207 -96 l 116 -96 q 106 -96 102 -88 z"},"C":{"x_min":0,"x_max":457,"ha":457,"o":"m 42 180 l 42 521 q 42 607 94 658 q 145 708 230 708 q 316 708 368 658 q 420 607 420 521 l 420 509 q 420 504 416 500 q 413 496 408 496 l 315 492 q 303 492 303 504 l 303 529 q 303 564 283 586 q 263 608 230 608 q 198 608 178 586 q 158 564 158 529 l 158 171 q 158 136 178 114 q 198 92 230 92 q 263 92 283 114 q 303 136 303 171 l 303 196 q 303 201 306 204 q 310 208 315 208 l 408 204 q 413 204 416 200 q 420 197 420 192 l 420 180 q 420 95 368 44 q 316 -8 230 -8 q 145 -8 94 44 q 42 95 42 180 z"},"W":{"x_min":0,"x_max":665,"ha":665,"o":"m 157 11 l 24 687 l 23 691 q 23 700 34 700 l 130 700 q 142 700 143 689 l 213 272 q 214 269 216 269 q 218 269 219 272 l 282 689 q 283 700 295 700 l 375 700 q 387 700 388 689 l 456 272 q 457 269 459 269 q 461 269 462 272 l 525 689 q 526 700 538 700 l 631 700 q 644 700 642 687 l 515 11 q 514 0 502 0 l 417 0 q 405 0 404 11 l 337 436 q 336 440 334 440 q 332 440 331 436 l 269 11 q 268 0 256 0 l 170 0 q 158 0 157 11 z"},"A":{"x_min":0,"x_max":456,"ha":456,"o":"m 325 11 l 306 116 q 306 121 300 121 l 154 121 q 148 121 148 116 l 129 11 q 128 0 116 0 l 25 0 q 11 0 14 13 l 162 689 q 164 700 175 700 l 281 700 q 292 700 294 689 l 442 13 l 442 9 q 442 0 431 0 l 338 0 q 326 0 325 11 z m 171 212 l 282 212 q 288 212 287 217 l 229 533 q 228 536 226 536 q 224 536 223 533 l 166 217 q 165 212 171 212 z"},"f":{"x_min":0,"x_max":291,"ha":291,"o":"m 265 499 l 265 440 q 265 435 262 432 q 258 428 253 428 l 191 428 q 186 428 186 423 l 186 12 q 186 7 182 4 q 179 0 174 0 l 83 0 q 78 0 74 4 q 71 7 71 12 l 71 423 q 71 428 66 428 l 34 428 q 29 428 26 432 q 22 435 22 440 l 22 499 q 22 504 26 508 q 29 511 34 511 l 66 511 q 71 511 71 516 l 71 541 q 71 631 112 668 q 153 705 243 704 l 251 704 q 256 704 260 700 q 263 697 263 692 l 261 624 q 261 619 258 616 q 254 612 249 612 l 244 612 q 214 611 200 592 q 186 574 186 536 l 186 516 q 186 511 191 511 l 253 511 q 258 511 262 508 q 265 504 265 499 z"},"Q":{"x_min":0,"x_max":455,"ha":455,"o":"m 413 513 l 413 187 q 413 118 380 68 q 347 19 289 1 q 285 0 285 -4 l 285 -92 q 285 -97 282 -100 q 278 -104 273 -104 l 181 -104 q 176 -104 172 -100 q 169 -97 169 -92 l 169 -4 q 169 0 165 1 q 108 20 75 69 q 42 118 42 187 l 42 513 q 42 600 93 654 q 144 708 227 708 q 311 708 362 654 q 413 600 413 513 z m 297 525 q 297 562 278 585 q 258 608 227 608 q 196 608 177 585 q 158 562 158 525 l 158 175 q 158 138 177 115 q 196 92 227 92 q 258 92 278 115 q 297 138 297 175 z"},"w":{"x_min":0,"x_max":592,"ha":592,"o":"m 126 11 l 19 499 l 19 503 q 19 512 30 512 l 118 512 q 130 512 131 501 l 183 190 q 184 187 186 187 q 188 187 189 190 l 244 501 q 245 512 257 512 l 335 512 q 347 512 348 501 l 404 189 q 405 186 407 186 q 409 186 410 189 l 463 501 q 464 512 476 512 l 563 510 q 576 510 573 497 l 466 11 q 464 0 453 0 l 363 0 q 351 0 350 11 l 297 303 q 296 306 294 306 q 292 306 291 303 l 239 11 q 238 0 226 0 l 139 0 q 128 0 126 11 z"},"-":{"x_min":0,"x_max":325,"ha":325,"o":"m 27 263 l 27 339 q 27 344 30 348 q 34 351 39 351 l 286 351 q 291 351 294 348 q 298 344 298 339 l 298 263 q 298 258 294 254 q 291 251 286 251 l 39 251 q 34 251 30 254 q 27 258 27 263 z"},"E":{"x_min":0,"x_max":435,"ha":435,"o":"m 391 600 l 175 600 q 170 600 170 595 l 170 406 q 170 401 175 401 l 303 401 q 308 401 312 398 q 315 394 315 389 l 315 312 q 315 307 312 304 q 308 300 303 300 l 175 300 q 170 300 170 295 l 170 105 q 170 100 175 100 l 391 100 q 396 100 400 96 q 403 93 403 88 l 403 12 q 403 7 400 4 q 396 0 391 0 l 66 0 q 61 0 58 4 q 54 7 54 12 l 54 688 q 54 693 58 696 q 61 700 66 700 l 391 700 q 396 700 400 696 q 403 693 403 688 l 403 612 q 403 607 400 604 q 396 600 391 600 z"},"s":{"x_min":0,"x_max":398,"ha":398,"o":"m 30 135 l 30 142 q 30 147 34 150 q 37 154 42 154 l 128 154 q 133 154 136 150 q 140 147 140 142 l 140 137 q 140 113 158 97 q 177 81 204 81 q 230 81 245 96 q 260 111 260 134 q 260 154 247 168 q 234 181 219 188 q 204 195 165 211 q 108 233 72 267 q 35 301 35 368 q 35 438 80 478 q 124 517 200 517 q 278 517 324 476 q 369 434 369 364 q 369 359 366 356 q 362 352 357 352 l 273 352 q 268 352 264 356 q 261 359 261 364 l 261 370 q 261 394 244 410 q 228 426 203 426 q 177 426 162 410 q 146 393 146 370 q 146 351 158 338 q 170 325 185 318 q 200 310 235 295 q 277 278 306 262 q 334 245 356 214 q 377 184 377 139 q 377 72 330 33 q 283 -6 203 -6 q 124 -6 77 32 q 30 70 30 135 z"},">":{"x_min":0,"x_max":439,"ha":439,"o":"m 35 57 q 27 57 27 68 l 27 153 q 27 163 36 167 l 295 281 q 301 284 295 287 l 36 401 q 27 406 27 415 l 27 500 q 27 507 31 510 q 35 512 41 509 l 404 338 q 413 334 413 324 l 413 243 q 413 234 404 229 l 41 59 q 37 57 35 57 z"},"l":{"x_min":0,"x_max":199,"ha":199,"o":"m 42 12 l 42 688 q 42 693 46 696 q 49 700 54 700 l 146 700 q 151 700 154 696 q 158 693 158 688 l 158 12 q 158 7 154 4 q 151 0 146 0 l 54 0 q 49 0 46 4 q 42 7 42 12 z"},"8":{"x_min":0,"x_max":434,"ha":434,"o":"m 325 364 q 358 345 375 306 q 396 259 396 200 q 396 147 380 107 q 360 53 318 22 q 275 -8 216 -8 q 158 -8 116 22 q 73 52 53 106 q 38 148 38 200 q 38 259 56 301 q 71 341 109 363 q 113 366 109 369 q 76 390 58 427 q 38 470 38 523 q 38 581 58 620 q 78 664 120 688 q 161 712 216 712 q 270 712 312 688 q 353 665 374 621 q 396 579 396 523 q 396 471 376 429 q 358 392 325 371 q 319 367 325 364 z m 159 559 q 152 541 152 513 q 152 483 162 456 q 169 435 183 423 q 197 411 216 411 q 237 411 252 424 q 266 436 273 459 q 281 483 281 513 q 281 547 271 568 q 264 589 250 600 q 236 612 216 612 q 198 612 184 602 q 171 591 164 573 z m 281 206 q 281 244 272 271 q 266 295 252 308 q 237 322 216 322 q 195 322 180 308 q 166 294 160 268 q 152 242 152 208 q 152 177 158 151 q 163 123 178 108 q 194 92 216 92 q 239 92 255 108 q 271 124 276 153 q 281 180 281 206 z"},"\\":{"x_min":0,"x_max":386,"ha":386,"o":"m 367 10 q 367 0 356 0 l 264 0 q 254 0 251 10 l 46 686 l 45 690 q 45 700 56 700 l 148 700 q 158 700 161 690 l 366 14 z"},"e":{"x_min":0,"x_max":426,"ha":426,"o":"m 380 213 l 159 213 q 154 213 154 208 l 154 163 q 154 132 171 112 q 188 92 215 92 q 238 92 254 106 q 271 121 276 144 q 279 154 289 154 l 378 150 q 383 150 386 146 q 390 143 389 137 q 382 67 338 30 q 294 -8 215 -8 q 133 -8 86 36 q 38 79 38 154 l 38 357 q 38 430 86 474 q 133 519 215 519 q 297 519 344 474 q 392 430 392 357 l 392 225 q 392 220 388 216 q 385 213 380 213 z m 154 348 l 154 303 q 154 298 159 298 l 272 298 q 277 298 277 303 l 277 348 q 277 380 260 400 q 243 419 215 419 q 188 419 171 399 q 154 379 154 348 z"},"b":{"x_min":0,"x_max":437,"ha":437,"o":"m 399 357 l 399 154 q 399 80 362 36 q 325 -8 258 -8 q 204 -8 168 27 q 166 29 164 28 q 162 27 162 24 l 162 12 q 162 7 158 4 q 155 0 150 0 l 58 0 q 53 0 50 4 q 46 7 46 12 l 46 688 q 46 693 50 696 q 53 700 58 700 l 150 700 q 155 700 158 696 q 162 693 162 688 l 162 486 q 162 483 164 482 q 167 482 170 486 q 189 503 212 511 q 236 519 258 519 q 324 519 362 476 q 399 433 399 357 z m 222 419 q 198 419 182 404 q 166 388 162 362 l 162 149 q 166 123 182 108 q 198 92 222 92 q 250 92 267 112 q 284 131 284 163 l 284 348 q 284 380 267 400 q 250 419 222 419 z"},"%":{"x_min":0,"x_max":772,"ha":772,"o":"m 54 557 q 54 598 74 633 q 94 668 128 688 q 163 709 204 709 q 244 709 278 688 q 313 668 333 633 q 353 598 353 557 q 353 515 333 480 q 313 445 279 424 q 245 404 204 404 q 163 404 128 424 q 94 445 74 480 q 54 515 54 557 z m 162 14 l 526 692 q 530 700 541 700 l 599 700 q 606 700 608 696 q 610 692 607 686 l 243 8 q 239 0 228 0 l 170 0 q 163 0 161 4 q 159 8 162 14 z m 289 557 q 289 594 264 620 q 239 647 204 647 q 168 647 143 621 q 118 595 118 557 q 118 519 143 492 q 168 466 204 466 q 240 466 264 492 q 289 519 289 557 z m 419 144 q 419 185 439 220 q 459 255 493 276 q 527 296 568 296 q 609 296 643 276 q 677 255 697 220 q 717 185 717 144 q 717 102 697 67 q 677 32 643 12 q 609 -9 568 -9 q 527 -9 493 12 q 459 32 439 67 q 419 102 419 144 z m 654 144 q 654 182 629 208 q 604 234 568 234 q 532 234 507 208 q 482 182 482 144 q 482 106 507 80 q 532 53 568 53 q 604 53 629 80 q 654 106 654 144 z"},"m":{"x_min":0,"x_max":665,"ha":665,"o":"m 623 347 l 623 12 q 623 7 620 4 q 616 0 611 0 l 520 0 q 515 0 512 4 q 508 7 508 12 l 508 339 q 508 377 493 398 q 478 419 452 419 q 424 419 408 398 q 392 377 392 340 l 392 12 q 392 7 388 4 q 385 0 380 0 l 289 0 q 284 0 280 4 q 277 7 277 12 l 277 339 q 277 377 262 398 q 246 419 221 419 q 193 419 177 398 q 161 377 161 340 l 161 12 q 161 7 158 4 q 154 0 149 0 l 58 0 q 53 0 50 4 q 46 7 46 12 l 46 499 q 46 504 50 508 q 53 511 58 511 l 149 511 q 154 511 158 508 q 161 504 161 499 l 161 483 q 161 480 163 479 q 165 478 167 481 q 187 501 212 510 q 237 519 261 519 q 335 519 370 456 q 373 452 379 459 q 399 491 430 505 q 460 519 491 519 q 556 519 590 474 q 623 428 623 347 z"},"#":{"x_min":0,"x_max":606,"ha":606,"o":"m 553 413 l 492 413 q 486 413 486 408 l 469 288 q 469 283 473 283 l 519 283 q 524 283 528 280 q 531 276 531 271 l 531 196 q 531 191 528 188 q 524 184 519 184 l 458 184 q 452 184 452 179 l 431 34 q 430 23 418 23 l 326 24 q 314 24 315 37 l 336 179 q 336 184 332 184 l 227 184 q 221 184 221 179 l 200 34 q 199 23 187 23 l 95 24 q 83 24 84 37 l 105 179 q 105 184 101 184 l 54 184 q 49 184 46 188 q 42 191 42 196 l 42 271 q 42 276 46 280 q 49 283 54 283 l 116 283 q 122 283 122 288 l 139 408 q 139 413 135 413 l 88 413 q 83 413 80 416 q 76 420 76 425 l 76 501 q 76 506 80 510 q 83 513 88 513 l 150 513 q 156 513 156 518 l 177 663 q 178 674 190 674 l 282 673 q 294 673 293 660 l 272 518 q 272 513 276 513 l 381 513 q 387 513 387 518 l 408 663 q 409 674 421 674 l 513 673 q 525 673 524 660 l 503 518 q 503 513 507 513 l 553 513 q 558 513 562 510 q 565 506 565 501 l 565 425 q 565 420 562 416 q 558 413 553 413 z m 353 288 l 370 408 q 370 413 366 413 l 261 413 q 255 413 255 408 l 238 288 q 238 283 242 283 l 347 283 q 353 283 353 288 z"},",":{"x_min":0,"x_max":199,"ha":199,"o":"m 33 -78 l 59 146 q 60 157 71 157 l 151 157 q 164 157 161 144 l 112 -80 q 110 -91 99 -91 l 45 -91 q 39 -91 36 -88 q 32 -84 33 -78 z"},"n":{"x_min":0,"x_max":439,"ha":439,"o":"m 397 352 l 397 12 q 397 7 394 4 q 390 0 385 0 l 293 0 q 288 0 284 4 q 281 7 281 12 l 281 343 q 281 379 266 399 q 251 419 223 419 q 194 419 178 398 q 162 377 162 340 l 162 12 q 162 7 158 4 q 155 0 150 0 l 58 0 q 53 0 50 4 q 46 7 46 12 l 46 499 q 46 504 50 508 q 53 511 58 511 l 150 511 q 155 511 158 508 q 162 504 162 499 l 162 479 q 162 476 164 476 q 167 475 170 479 q 204 519 265 519 q 330 519 364 476 q 397 432 397 352 z"},"h":{"x_min":0,"x_max":439,"ha":439,"o":"m 397 352 l 397 12 q 397 7 394 4 q 390 0 385 0 l 293 0 q 288 0 284 4 q 281 7 281 12 l 281 343 q 281 379 266 399 q 251 419 223 419 q 194 419 178 398 q 162 377 162 340 l 162 12 q 162 7 158 4 q 155 0 150 0 l 58 0 q 53 0 50 4 q 46 7 46 12 l 46 688 q 46 693 50 696 q 53 700 58 700 l 150 700 q 155 700 158 696 q 162 693 162 688 l 162 479 q 162 476 164 476 q 167 475 170 479 q 204 519 265 519 q 330 519 364 476 q 397 432 397 352 z"},"z":{"x_min":0,"x_max":368,"ha":368,"o":"m 24 12 l 24 97 q 24 105 28 112 l 200 400 q 203 406 197 406 l 40 406 q 35 406 32 410 q 28 413 28 418 l 28 499 q 28 504 32 508 q 35 511 40 511 l 329 511 q 334 511 338 508 q 341 504 341 499 l 341 414 q 341 406 337 399 l 160 111 q 157 105 163 105 l 334 105 q 339 105 342 102 q 346 98 346 93 l 346 12 q 346 7 342 4 q 339 0 334 0 l 36 0 q 31 0 28 4 q 24 7 24 12 z"},"B":{"x_min":0,"x_max":462,"ha":462,"o":"m 242 0 l 66 0 q 61 0 58 4 q 54 7 54 12 l 54 688 q 54 693 58 696 q 61 700 66 700 l 224 700 q 319 700 373 652 q 427 604 427 512 q 427 409 354 365 q 349 362 352 359 q 391 334 413 292 q 435 250 435 192 q 435 100 382 50 q 328 0 242 0 z m 170 595 l 170 409 q 170 404 175 404 l 226 404 q 267 404 290 429 q 313 454 313 500 q 313 548 290 574 q 267 600 226 600 l 175 600 q 170 600 170 595 z m 319 208 q 319 260 296 290 q 273 319 233 319 l 175 319 q 170 319 170 314 l 170 106 q 170 101 175 101 l 233 101 q 273 101 296 129 q 319 157 319 208 z"},"K":{"x_min":0,"x_max":477,"ha":477,"o":"m 54 12 l 54 688 q 54 693 58 696 q 61 700 66 700 l 158 700 q 163 700 166 696 q 170 693 170 688 l 170 412 q 170 408 172 408 q 174 407 176 410 l 326 691 q 331 700 341 700 l 440 700 q 447 700 449 696 q 451 692 448 686 l 298 405 q 297 401 297 399 l 459 14 q 460 12 460 8 q 460 0 450 0 l 351 0 q 340 0 337 9 l 219 298 q 218 301 216 300 q 214 300 212 298 l 172 231 q 170 227 170 225 l 170 12 q 170 7 166 4 q 163 0 158 0 l 66 0 q 61 0 58 4 q 54 7 54 12 z"},"R":{"x_min":0,"x_max":461,"ha":461,"o":"m 318 10 l 233 297 q 231 301 228 301 l 175 301 q 170 301 170 296 l 170 12 q 170 7 166 4 q 163 0 158 0 l 66 0 q 61 0 58 4 q 54 7 54 12 l 54 688 q 54 693 58 696 q 61 700 66 700 l 254 700 q 307 700 348 674 q 388 649 410 602 q 433 556 433 496 q 433 434 409 389 q 385 344 342 321 q 338 320 339 315 l 437 14 q 438 12 438 9 q 438 0 427 0 l 331 0 q 321 0 318 10 z m 170 595 l 170 396 q 170 391 175 391 l 236 391 q 272 391 294 419 q 317 447 317 495 q 317 543 294 572 q 272 600 236 600 l 175 600 q 170 600 170 595 z"},"T":{"x_min":0,"x_max":452,"ha":452,"o":"m 425 688 l 425 612 q 425 607 422 604 q 418 600 413 600 l 286 600 q 281 600 281 595 l 281 12 q 281 7 278 4 q 274 0 269 0 l 177 0 q 172 0 168 4 q 165 7 165 12 l 165 595 q 165 600 160 600 l 40 600 q 35 600 32 604 q 28 607 28 612 l 28 688 q 28 693 32 696 q 35 700 40 700 l 413 700 q 418 700 422 696 q 425 693 425 688 z"},"P":{"x_min":0,"x_max":457,"ha":457,"o":"m 432 495 q 432 405 384 350 q 337 295 259 295 l 174 295 q 169 295 169 290 l 169 12 q 169 7 166 4 q 162 0 157 0 l 65 0 q 60 0 56 4 q 53 7 53 12 l 53 689 q 53 694 56 698 q 60 701 65 701 l 253 701 q 306 701 346 675 q 387 649 410 602 q 432 555 432 495 z m 316 492 q 316 542 294 572 q 271 601 234 601 l 174 601 q 169 601 169 596 l 169 391 q 169 386 174 386 l 234 386 q 271 386 294 414 q 316 443 316 492 z"},"|":{"x_min":0,"x_max":171,"ha":171,"o":"m 27 -68 l 27 748 q 27 753 30 756 q 34 760 39 760 l 131 760 q 136 760 140 756 q 143 753 143 748 l 143 -68 q 143 -73 140 -76 q 136 -80 131 -80 l 39 -80 q 34 -80 30 -76 q 27 -73 27 -68 z"},"t":{"x_min":0,"x_max":282,"ha":282,"o":"m 248 429 l 186 429 q 181 429 181 424 l 181 162 q 181 127 194 114 q 207 100 233 101 l 240 101 q 245 101 248 98 q 252 94 252 89 l 252 12 q 252 7 248 4 q 245 0 240 0 l 206 0 q 138 0 104 25 q 69 50 69 119 l 69 424 q 69 429 64 429 l 29 429 q 24 429 20 432 q 17 436 17 441 l 17 499 q 17 504 20 508 q 24 511 29 511 l 64 511 q 69 511 69 516 l 69 626 q 69 631 72 634 q 76 638 81 638 l 169 638 q 174 638 178 634 q 181 631 181 626 l 181 516 q 181 511 186 511 l 248 511 q 253 511 256 508 q 260 504 260 499 l 260 441 q 260 436 256 432 q 253 429 248 429 z"},"M":{"x_min":0,"x_max":538,"ha":538,"o":"m 383 700 l 475 700 q 480 700 484 696 q 487 693 487 688 l 487 12 q 487 7 484 4 q 480 0 475 0 l 383 0 q 378 0 374 4 q 371 7 371 12 l 371 484 q 371 488 369 488 q 367 488 365 485 l 278 327 q 273 319 269 319 q 265 319 260 327 l 173 485 q 171 488 169 488 q 167 488 167 484 l 167 12 q 167 7 164 4 q 160 0 155 0 l 63 0 q 58 0 54 4 q 51 7 51 12 l 51 688 q 51 693 54 696 q 58 700 63 700 l 155 700 q 165 700 170 692 l 267 521 q 270 517 273 521 l 368 692 q 373 700 383 700 z"},"g":{"x_min":0,"x_max":431,"ha":431,"o":"m 287 511 l 379 511 q 384 511 388 508 q 391 504 391 499 l 391 19 q 391 -89 342 -148 q 293 -206 167 -206 q 145 -206 134 -205 q 122 -204 122 -192 l 122 -115 q 122 -102 135 -104 q 192 -105 222 -90 q 253 -75 264 -46 q 275 -17 275 30 l 275 41 q 275 44 273 44 q 271 45 269 42 q 236 -1 175 -1 q 108 -1 73 42 q 38 86 38 161 l 38 357 q 38 434 74 476 q 109 519 175 519 q 236 519 269 476 q 271 473 273 474 q 275 474 275 477 l 275 499 q 275 504 278 508 q 282 511 287 511 z m 275 169 l 275 348 q 275 380 258 400 q 242 419 215 419 q 188 419 171 399 q 154 379 154 348 l 154 169 q 154 138 171 118 q 188 99 215 99 q 242 99 258 118 q 275 138 275 169 z"},"j":{"x_min":0,"x_max":211,"ha":211,"o":"m 33 652 q 33 683 53 703 q 73 723 104 723 q 135 723 154 703 q 174 683 174 652 q 174 621 154 601 q 134 581 104 581 q 73 581 53 601 q 33 621 33 652 z m -47 -193 l -47 -118 q -47 -106 -35 -106 q 9 -105 28 -82 q 46 -59 46 -16 l 46 499 q 46 504 50 508 q 53 511 58 511 l 150 511 q 155 511 158 508 q 162 504 162 499 l 162 -16 q 162 -83 149 -122 q 136 -162 93 -184 q 50 -206 -35 -205 q -47 -205 -47 -193 z"},"i":{"x_min":0,"x_max":215,"ha":215,"o":"m 36 652 q 36 683 56 703 q 76 723 107 723 q 138 723 158 703 q 177 683 177 652 q 177 621 157 601 q 137 581 107 581 q 76 581 56 601 q 36 621 36 652 z m 50 12 l 50 499 q 50 504 54 508 q 57 511 62 511 l 154 511 q 159 511 162 508 q 166 504 166 499 l 166 12 q 166 7 162 4 q 159 0 154 0 l 62 0 q 57 0 54 4 q 50 7 50 12 z"},"y":{"x_min":0,"x_max":403,"ha":403,"o":"m 34 -187 l 34 -115 q 34 -110 37 -106 q 40 -103 44 -103 q 77 -102 96 -94 q 115 -87 126 -66 q 138 -44 143 -3 l 142 3 l 16 499 l 16 503 q 16 512 27 512 l 125 512 q 137 512 138 501 l 199 170 q 200 167 202 167 q 204 167 205 170 l 264 501 q 265 512 277 512 l 376 510 q 390 510 387 497 l 253 -28 q 234 -99 213 -134 q 192 -169 154 -184 q 116 -199 45 -199 l 40 -199 q 38 -199 36 -196 q 34 -192 34 -187 z"},"@":{"x_min":0,"x_max":759,"ha":759,"o":"m 722 352 q 722 327 719 301 q 706 204 655 150 q 604 95 529 95 q 465 95 431 135 q 427 138 424 134 q 409 113 387 104 q 365 94 343 94 q 292 94 262 124 q 233 154 233 201 q 233 218 238 250 l 242 283 q 244 307 250 347 q 268 461 367 461 q 380 461 394 456 q 409 451 421 440 q 428 435 428 442 l 428 444 q 429 455 441 455 l 497 455 q 509 455 508 442 l 484 258 q 483 252 483 240 q 483 206 499 188 q 515 170 541 170 q 577 170 602 206 q 626 243 634 303 q 637 326 637 346 q 637 413 609 463 q 581 513 530 540 q 480 567 414 567 q 342 567 279 530 q 216 492 174 426 q 132 359 122 275 q 119 251 119 229 q 119 156 149 104 q 179 51 228 24 q 277 -3 333 -3 q 408 -3 468 39 q 473 42 476 42 q 482 42 485 36 l 511 -6 q 513 -9 513 -14 q 513 -19 508 -23 q 472 -48 424 -63 q 375 -78 319 -78 q 239 -78 175 -42 q 111 -5 74 62 q 38 130 38 221 q 38 253 42 280 q 55 384 109 466 q 163 549 246 595 q 328 641 422 641 q 510 641 578 605 q 646 569 684 504 q 722 438 722 352 z m 400 212 l 403 233 l 404 243 l 414 326 l 416 343 q 419 365 408 379 q 398 393 379 393 q 360 393 346 379 q 332 365 329 343 l 326 322 q 320 283 320 276 l 312 212 q 311 188 321 174 q 331 161 350 161 q 369 161 382 175 q 396 189 400 212 z"},".":{"x_min":0,"x_max":211,"ha":211,"o":""},"p":{"x_min":0,"x_max":441,"ha":441,"o":"m 403 357 l 403 155 q 403 78 366 35 q 329 -8 262 -8 q 239 -8 215 0 q 191 9 172 28 q 170 30 168 29 q 166 28 166 25 l 166 -177 q 166 -182 162 -186 q 159 -189 154 -189 l 62 -189 q 57 -189 54 -186 q 50 -182 50 -177 l 50 499 q 50 504 54 508 q 57 511 62 511 l 154 511 q 159 511 162 508 q 166 504 166 499 l 166 487 q 166 484 168 484 q 171 483 174 487 q 209 519 262 519 q 329 519 366 476 q 403 432 403 357 z m 226 420 q 199 420 182 400 q 166 380 166 348 l 166 163 q 166 131 182 112 q 199 92 226 92 q 254 92 271 112 q 288 131 288 163 l 288 348 q 288 380 271 400 q 254 420 226 420 z"},"X":{"x_min":0,"x_max":460,"ha":460,"o":"m 31 14 l 168 347 q 169 350 168 353 l 31 686 q 30 688 30 692 q 30 700 40 700 l 135 700 q 145 700 148 690 l 228 473 q 229 470 231 470 q 233 470 234 473 l 313 690 q 316 700 326 700 l 420 700 q 427 700 429 696 q 431 692 429 686 l 292 353 q 291 350 292 347 l 429 14 q 430 12 430 8 q 430 0 420 0 l 327 0 q 316 0 313 10 l 234 226 q 233 229 231 229 q 229 229 228 226 l 148 10 q 145 0 134 0 l 40 0 q 33 0 31 4 q 29 8 31 14 z"},"*":{"x_min":0,"x_max":361,"ha":361,"o":"m 147 407 l 147 502 q 147 505 145 506 q 143 507 141 505 l 60 457 q 56 455 54 455 q 48 455 44 462 l 23 501 q 21 505 21 507 q 21 513 27 517 l 112 567 q 114 569 114 571 q 114 573 112 574 l 27 623 q 18 629 23 639 l 44 680 q 46 685 51 686 q 56 688 61 685 l 141 636 q 143 634 145 635 q 147 636 147 639 l 147 734 q 147 739 150 742 q 154 746 159 746 l 203 746 q 208 746 212 742 q 215 739 215 734 l 214 639 q 214 636 216 635 q 218 634 220 636 l 300 685 q 304 687 306 687 q 313 687 317 680 l 338 639 q 340 635 340 633 q 340 628 334 623 l 250 574 q 248 573 248 571 q 248 569 250 567 l 334 517 q 344 511 339 501 l 317 460 q 314 455 310 454 q 305 453 300 456 l 220 505 q 218 507 216 506 q 214 505 214 502 l 215 407 q 215 402 212 398 q 208 395 203 395 l 159 395 q 154 395 150 398 q 147 402 147 407 z"},"Y":{"x_min":0,"x_max":456,"ha":456,"o":"m 170 13 l 170 286 l 169 292 l 30 686 q 29 688 29 691 q 29 700 40 700 l 136 700 q 147 700 150 690 l 225 433 q 226 430 228 430 q 230 430 231 433 l 306 690 q 309 700 320 700 l 416 700 q 422 700 425 696 q 428 693 426 686 l 287 292 l 286 286 l 286 13 q 286 8 282 4 q 279 1 274 1 l 182 1 q 177 1 174 4 q 170 8 170 13 z"},"c":{"x_min":0,"x_max":422,"ha":422,"o":"m 38 155 l 38 357 q 38 430 86 474 q 133 519 215 519 q 297 519 345 476 q 393 432 393 365 l 393 351 q 393 346 390 342 q 386 339 381 339 l 289 335 q 277 335 277 347 l 277 357 q 277 382 260 400 q 242 419 215 419 q 188 419 171 399 q 154 379 154 348 l 154 163 q 154 132 171 112 q 188 92 215 92 q 242 92 260 110 q 277 129 277 155 l 277 165 q 277 170 280 174 q 284 177 289 177 l 381 176 q 386 176 390 172 q 393 169 393 164 l 393 146 q 393 77 345 34 q 297 -8 215 -8 q 133 -8 86 36 q 38 80 38 155 z"},"!":{"x_min":0,"x_max":269,"ha":269,"o":"m 88 248 l 76 688 q 76 693 80 696 q 83 700 88 700 l 180 700 q 185 700 188 696 q 192 693 192 688 l 181 248 q 181 243 178 240 q 174 236 169 236 l 100 236 q 95 236 92 240 q 88 243 88 248 z m 64 73 q 64 104 84 124 q 104 143 135 143 q 166 143 186 124 q 205 104 205 73 q 205 42 185 22 q 165 2 135 2 q 104 2 84 22 q 64 42 64 73 z"},"/":{"x_min":0,"x_max":386,"ha":386,"o":"m 21 14 l 226 690 q 229 700 239 700 l 331 700 q 337 700 340 696 q 343 692 341 686 l 136 10 q 133 0 123 0 l 31 0 q 25 0 22 4 q 19 8 21 14 z"},"[":{"x_min":0,"x_max":330,"ha":330,"o":"m 27 -126 l 27 779 q 27 784 30 788 q 34 791 39 791 l 225 791 q 230 791 234 788 q 237 784 237 779 l 237 703 q 237 698 234 694 q 230 691 225 691 l 148 691 q 143 691 143 686 l 143 -32 q 143 -37 148 -37 l 225 -37 q 230 -37 234 -40 q 237 -44 237 -49 l 237 -126 q 237 -131 234 -134 q 230 -138 225 -138 l 39 -138 q 34 -138 30 -134 q 27 -131 27 -126 z"},"6":{"x_min":0,"x_max":429,"ha":429,"o":"m 401 216 q 401 193 399 151 q 394 75 346 34 q 299 -8 221 -8 q 147 -8 101 30 q 55 69 46 144 q 40 171 40 207 l 39 532 q 39 613 88 660 q 138 708 219 708 q 295 708 343 660 q 391 612 391 532 l 391 507 q 391 502 388 498 q 384 495 379 495 l 287 495 q 282 495 278 498 q 275 502 275 507 l 275 526 q 275 560 258 582 q 242 605 219 605 q 191 605 174 583 q 156 561 156 526 l 156 423 q 156 420 158 419 q 160 418 162 420 q 191 447 234 447 q 303 447 346 403 q 389 359 396 286 q 401 253 401 216 z m 284 224 q 284 250 279 295 q 267 353 220 353 q 196 353 180 338 q 165 322 160 292 q 156 257 156 224 q 156 195 159 157 q 164 125 180 108 q 195 91 220 91 q 245 91 260 109 q 276 127 281 160 q 284 196 284 224 z"},"r":{"x_min":0,"x_max":313,"ha":313,"o":"m 297 507 q 305 502 303 492 l 287 399 q 286 387 273 392 q 259 396 247 396 q 235 396 225 393 q 197 389 180 362 q 162 334 162 296 l 162 13 q 162 8 158 4 q 155 1 150 1 l 58 1 q 53 1 50 4 q 46 8 46 13 l 46 499 q 46 504 50 508 q 53 511 58 511 l 150 511 q 155 511 158 508 q 162 504 162 499 l 162 453 q 162 449 164 448 q 166 448 167 452 q 194 517 255 517 q 282 517 297 507 z"},"2":{"x_min":0,"x_max":425,"ha":425,"o":"m 173 100 l 392 100 q 397 100 400 96 q 404 93 404 88 l 404 12 q 404 7 400 4 q 397 0 392 0 l 43 0 q 38 0 34 4 q 31 7 31 12 l 31 92 q 31 101 36 107 l 75 160 q 114 212 152 266 q 189 320 215 363 q 273 459 273 522 q 273 562 256 585 q 238 608 209 608 q 180 608 163 586 q 146 563 147 526 l 147 487 q 147 482 144 478 q 140 475 135 475 l 41 475 q 36 475 32 478 q 29 482 29 487 l 29 530 q 33 610 84 659 q 134 708 214 708 q 293 708 342 656 q 390 605 390 521 q 390 471 373 422 q 356 373 319 317 q 294 277 260 229 q 225 181 214 166 q 184 126 170 106 q 168 104 169 102 q 170 100 173 100 z"},"{":{"x_min":0,"x_max":319,"ha":319,"o":"m 93 -18 l 93 193 q 93 274 38 283 q 27 285 27 295 l 27 364 q 27 375 38 377 q 93 386 93 465 l 93 671 q 93 730 122 760 q 152 791 208 791 l 279 791 q 284 791 288 788 q 291 784 291 779 l 291 703 q 291 698 288 694 q 284 691 279 691 l 259 691 q 236 691 222 673 q 209 655 209 624 l 209 451 q 209 360 156 333 q 152 330 156 327 q 209 298 209 207 l 209 30 q 209 -2 222 -20 q 236 -37 259 -37 l 279 -37 q 284 -37 288 -40 q 291 -44 291 -49 l 291 -126 q 291 -131 288 -134 q 284 -138 279 -138 l 208 -138 q 152 -138 122 -108 q 93 -77 93 -18 z"},"9":{"x_min":0,"x_max":423,"ha":423,"o":"m 384 168 q 384 87 334 40 q 285 -8 204 -8 q 128 -8 80 40 q 32 88 32 168 l 32 193 q 32 198 36 202 q 39 205 44 205 l 136 205 q 141 205 144 202 q 148 198 148 193 l 148 174 q 148 140 164 118 q 181 95 204 95 q 232 95 250 117 q 267 139 267 174 l 267 276 q 267 279 265 280 q 263 281 261 279 q 232 253 189 253 q 120 253 77 297 q 34 341 27 414 q 22 447 22 484 q 22 518 25 549 q 29 625 76 666 q 124 708 203 708 q 276 708 322 670 q 368 631 378 556 q 383 526 383 493 z m 267 476 q 267 506 264 543 q 253 609 204 609 q 179 609 163 591 q 147 573 142 540 q 140 516 140 476 q 140 439 145 405 q 150 377 166 362 q 181 347 204 347 q 228 347 244 362 q 259 378 263 408 q 267 443 267 476 z"}," ":{"x_min":0,"x_max":200,"ha":200,"o":""},"I":{"x_min":0,"x_max":224,"ha":224,"o":"m 54 12 l 54 688 q 54 693 58 696 q 61 700 66 700 l 158 700 q 163 700 166 696 q 170 693 170 688 l 170 12 q 170 7 166 4 q 163 0 158 0 l 66 0 q 61 0 58 4 q 54 7 54 12 z"},"H":{"x_min":0,"x_max":477,"ha":477,"o":"m 319 700 l 411 700 q 416 700 420 696 q 423 693 423 688 l 423 12 q 423 7 420 4 q 416 0 411 0 l 319 0 q 314 0 310 4 q 307 7 307 12 l 307 295 q 307 300 302 300 l 175 300 q 170 300 170 295 l 170 12 q 170 7 166 4 q 163 0 158 0 l 66 0 q 61 0 58 4 q 54 7 54 12 l 54 688 q 54 693 58 696 q 61 700 66 700 l 158 700 q 163 700 166 696 q 170 693 170 688 l 170 406 q 170 401 175 401 l 302 401 q 307 401 307 406 l 307 688 q 307 693 310 696 q 314 700 319 700 z"},"4":{"x_min":0,"x_max":459,"ha":459,"o":"m 443 275 l 443 194 q 443 189 440 186 q 436 182 431 182 l 401 182 q 396 182 396 177 l 396 12 q 396 7 392 4 q 389 0 384 0 l 292 0 q 287 0 284 4 q 280 7 280 12 l 280 177 q 280 182 275 182 l 29 182 q 24 182 20 186 q 17 189 17 194 l 17 259 q 17 268 19 274 l 158 690 q 161 700 171 700 l 271 700 q 277 700 280 696 q 283 693 281 686 l 153 293 q 152 287 157 287 l 275 287 q 280 287 280 292 l 280 412 q 280 417 284 420 q 287 424 292 424 l 384 424 q 389 424 392 420 q 396 417 396 412 l 396 292 q 396 287 401 287 l 431 287 q 436 287 440 284 q 443 280 443 275 z"},"~":{"x_min":0,"x_max":480,"ha":480,"o":"m 238 242 q 213 257 199 264 q 185 271 168 271 q 129 271 101 233 q 94 223 85 229 l 36 259 q 27 265 30 275 q 46 318 81 345 q 116 372 158 372 q 180 372 198 365 q 216 358 237 346 q 264 329 281 322 q 298 314 318 314 q 336 314 349 324 q 362 333 374 350 q 381 360 391 354 l 443 321 q 453 314 448 305 q 425 264 394 238 q 363 213 325 213 q 301 213 282 220 q 264 227 238 242 z"},"D":{"x_min":0,"x_max":472,"ha":472,"o":"m 54 12 l 54 688 q 54 693 58 696 q 61 700 66 700 l 237 700 q 323 700 374 648 q 426 596 426 509 l 426 191 q 426 104 374 52 q 323 0 237 0 l 66 0 q 61 0 58 4 q 54 7 54 12 z m 175 100 l 235 101 q 268 101 288 128 q 309 154 310 198 l 310 502 q 310 547 290 574 q 269 600 234 600 l 175 600 q 170 600 170 595 l 170 105 q 170 100 175 100 z"},"^":{"x_min":0,"x_max":413,"ha":413,"o":"m 31 315 l 154 690 q 157 700 167 700 l 245 700 q 255 700 258 690 l 382 315 q 383 313 383 310 q 383 301 372 301 l 298 301 q 288 301 285 311 l 210 566 q 209 569 207 570 q 205 570 204 566 l 128 311 q 125 301 115 301 l 41 301 q 35 301 32 304 q 29 308 31 315 z"},"0":{"x_min":0,"x_max":450,"ha":450,"o":"m 38 183 l 38 517 q 38 604 89 658 q 140 711 224 711 q 309 711 360 658 q 412 604 412 517 l 412 183 q 412 96 360 42 q 309 -11 224 -11 q 140 -11 89 42 q 38 96 38 183 z m 296 176 l 296 524 q 296 563 276 586 q 257 610 224 610 q 192 610 173 586 q 154 563 154 524 l 154 176 q 154 137 173 114 q 192 90 224 90 q 257 90 276 114 q 296 137 296 176 z"},"F":{"x_min":0,"x_max":415,"ha":415,"o":"m 390 600 l 175 600 q 170 600 170 595 l 170 406 q 170 401 175 401 l 302 401 q 307 401 310 398 q 314 394 314 389 l 314 312 q 314 307 310 304 q 307 300 302 300 l 175 300 q 170 300 170 295 l 170 12 q 170 7 166 4 q 163 0 158 0 l 66 0 q 61 0 58 4 q 54 7 54 12 l 54 688 q 54 693 58 696 q 61 700 66 700 l 390 700 q 395 700 398 696 q 402 693 402 688 l 402 612 q 402 607 398 604 q 395 600 390 600 z"},"`":{"x_min":0,"x_max":206,"ha":206,"o":""},"k":{"x_min":0,"x_max":433,"ha":433,"o":"m 46 12 l 46 688 q 46 693 50 696 q 53 700 58 700 l 150 700 q 155 700 158 696 q 162 693 162 688 l 162 332 q 162 328 164 328 q 166 328 168 331 l 277 503 q 281 511 291 511 l 387 511 q 394 511 396 506 q 398 502 394 496 l 290 339 q 288 335 289 332 l 409 14 q 410 12 410 9 q 410 0 399 0 l 304 0 q 294 0 291 10 l 217 236 q 216 239 214 240 q 212 240 211 237 l 164 167 q 162 163 162 161 l 162 12 q 162 7 158 4 q 155 0 150 0 l 58 0 q 53 0 50 4 q 46 7 46 12 z"},"u":{"x_min":0,"x_max":438,"ha":438,"o":"m 289 511 l 381 511 q 386 511 390 508 q 393 504 393 499 l 393 12 q 393 7 390 4 q 386 0 381 0 l 289 0 q 284 0 280 4 q 277 7 277 12 l 277 34 q 277 37 275 38 q 273 39 271 36 q 242 -7 178 -7 q 117 -7 80 30 q 42 66 42 142 l 42 499 q 42 504 46 508 q 49 511 54 511 l 146 511 q 151 511 154 508 q 158 504 158 499 l 158 167 q 158 92 216 92 q 245 92 261 114 q 277 135 277 172 l 277 499 q 277 504 280 508 q 284 511 289 511 z"},"]":{"x_min":0,"x_max":330,"ha":330,"o":"m 290 -138 l 105 -138 q 100 -138 96 -134 q 93 -131 93 -126 l 93 -49 q 93 -44 96 -40 q 100 -37 105 -37 l 181 -37 q 186 -37 186 -32 l 186 686 q 186 691 181 691 l 105 691 q 100 691 96 694 q 93 698 93 703 l 93 779 q 93 784 96 788 q 100 791 105 791 l 290 791 q 295 791 298 788 q 302 784 302 779 l 302 -126 q 302 -131 298 -134 q 295 -138 290 -138 z"},"U":{"x_min":0,"x_max":478,"ha":478,"o":"m 50 194 l 50 688 q 50 693 54 696 q 57 700 62 700 l 154 700 q 159 700 162 696 q 166 693 166 688 l 166 182 q 166 142 186 117 q 206 92 239 92 q 272 92 292 117 q 312 142 312 182 l 312 688 q 312 693 316 696 q 319 700 324 700 l 416 700 q 421 700 424 696 q 428 693 428 688 l 428 194 q 428 103 376 48 q 324 -8 239 -8 q 153 -8 102 48 q 50 103 50 194 z"},"o":{"x_min":0,"x_max":432,"ha":432,"o":"m 38 155 l 38 356 q 38 430 86 474 q 134 519 216 519 q 299 519 347 474 q 395 430 395 356 l 395 155 q 395 80 348 36 q 300 -8 216 -8 q 133 -8 86 36 q 38 80 38 155 z m 279 164 l 279 348 q 279 379 262 399 q 244 419 216 419 q 188 419 171 400 q 154 380 154 348 l 154 164 q 154 132 171 112 q 188 93 216 93 q 244 93 262 112 q 279 132 279 164 z"},"N":{"x_min":0,"x_max":507,"ha":507,"o":"m 350 700 l 441 700 q 446 700 450 696 q 453 693 453 688 l 453 12 q 453 7 450 4 q 446 0 441 0 l 336 0 q 326 0 323 10 l 174 434 q 173 437 170 436 q 168 436 168 433 l 169 12 q 169 7 166 4 q 162 0 157 0 l 66 0 q 61 0 58 4 q 54 7 54 12 l 54 688 q 54 693 58 696 q 61 700 66 700 l 169 700 q 179 700 182 690 l 332 269 q 333 266 336 266 q 338 267 338 270 l 338 688 q 338 693 342 696 q 345 700 350 700 z"},"+":{"x_min":0,"x_max":439,"ha":439,"o":"m 413 346 l 413 282 q 413 277 410 274 q 406 270 401 270 l 269 270 q 264 270 264 265 l 264 133 q 264 128 260 124 q 257 121 252 121 l 188 121 q 183 121 180 124 q 176 128 176 133 l 176 265 q 176 270 171 270 l 39 270 q 34 270 30 274 q 27 277 27 282 l 27 346 q 27 351 30 354 q 34 358 39 358 l 171 358 q 176 358 176 363 l 176 495 q 176 500 180 504 q 183 507 188 507 l 252 507 q 257 507 260 504 q 264 500 264 495 l 264 363 q 264 358 269 358 l 401 358 q 406 358 410 354 q 413 351 413 346 z"},"G":{"x_min":0,"x_max":462,"ha":462,"o":"m 42 173 l 42 527 q 42 609 94 658 q 145 708 230 708 q 315 708 368 658 q 420 609 420 526 l 420 487 q 420 482 416 478 q 413 475 408 475 l 316 475 q 311 475 308 478 q 304 482 304 487 l 304 528 q 304 564 284 586 q 263 608 230 608 q 197 608 177 586 q 157 564 157 528 l 157 172 q 157 136 177 114 q 197 92 230 92 q 263 92 284 114 q 304 136 304 172 l 304 268 q 304 273 299 273 l 238 273 q 233 273 230 276 q 226 280 226 285 l 226 358 q 226 363 230 366 q 233 370 238 370 l 408 370 q 413 370 416 366 q 420 363 420 358 l 420 173 q 420 91 368 42 q 315 -8 230 -8 q 145 -8 94 42 q 42 91 42 173 z"},"q":{"x_min":0,"x_max":441,"ha":441,"o":"m 287 511 l 379 511 q 384 511 388 508 q 391 504 391 499 l 391 -177 q 391 -182 388 -186 q 384 -189 379 -189 l 287 -189 q 282 -189 278 -186 q 275 -182 275 -177 l 275 25 q 275 28 273 29 q 271 30 269 28 q 250 9 226 0 q 202 -8 179 -8 q 113 -8 76 36 q 38 79 38 155 l 38 357 q 38 432 75 476 q 112 519 179 519 q 233 519 269 484 q 271 482 273 483 q 275 484 275 487 l 275 499 q 275 504 278 508 q 282 511 287 511 z m 275 149 l 275 362 q 271 388 255 404 q 239 420 215 420 q 187 420 170 400 q 153 380 153 348 l 153 163 q 153 131 170 112 q 187 92 215 92 q 239 92 255 108 q 271 123 275 149 z"},"d":{"x_min":0,"x_max":437,"ha":437,"o":"m 287 700 l 379 700 q 384 700 388 696 q 391 693 391 688 l 391 12 q 391 7 388 4 q 384 0 379 0 l 287 0 q 282 0 278 4 q 275 7 275 12 l 275 24 q 275 27 273 28 q 271 29 269 27 q 233 -8 179 -8 q 112 -8 75 36 q 38 80 38 154 l 38 357 q 38 433 76 476 q 113 519 179 519 q 202 519 226 510 q 250 502 269 483 q 271 481 273 482 q 275 483 275 486 l 275 688 q 275 693 278 696 q 282 700 287 700 z m 275 149 l 275 362 q 271 388 255 404 q 239 419 215 419 q 187 419 170 400 q 153 380 153 348 l 153 163 q 153 131 170 112 q 187 92 215 92 q 239 92 255 108 q 271 123 275 149 z"},"1":{"x_min":0,"x_max":274,"ha":274,"o":"m 122 700 l 218 700 q 223 700 226 696 q 230 693 230 688 l 230 12 q 230 7 226 4 q 223 0 218 0 l 126 0 q 121 0 118 4 q 114 7 114 12 l 114 576 q 114 578 112 580 q 111 582 109 581 l 27 565 l 24 565 q 13 565 13 576 l 10 643 q 10 653 18 657 l 107 697 q 114 700 122 700 z"},"5":{"x_min":0,"x_max":428,"ha":428,"o":"m 400 216 q 400 175 396 146 q 391 72 344 32 q 297 -8 219 -8 q 145 -8 99 30 q 53 68 43 144 l 40 172 q 40 184 52 184 l 144 184 q 156 184 157 172 q 157 166 159 154 q 171 92 219 92 q 244 92 260 108 q 275 124 280 153 q 284 178 284 217 q 284 254 278 281 q 273 307 258 322 q 242 336 219 336 q 171 336 157 290 q 154 279 144 279 l 51 279 q 46 279 42 282 q 39 286 39 291 l 39 688 q 39 693 42 696 q 46 700 51 700 l 377 700 q 382 700 386 696 q 389 693 389 688 l 389 612 q 389 607 386 604 q 382 600 377 600 l 160 600 q 155 600 155 595 l 155 400 q 155 397 157 396 q 159 396 161 398 q 178 416 202 426 q 227 437 254 437 q 314 437 350 398 q 387 360 394 290 q 400 259 400 216 z"}}}
